<svg width="70" height="70" viewBox="0 0 70 70" fill="none" xmlns="http://www.w3.org/2000/svg">
<g clip-path="url(#clip0)">
<path d="M60.3454 41.0373C59.679 41.0373 59.1391 40.4969 59.1391 39.8304V25.3493C59.1391 24.6828 58.5987 24.1424 57.9322 24.1424H54.3117C53.6452 24.1424 53.1048 24.6828 53.1048 25.3493C53.1048 26.0157 52.5649 26.5561 51.898 26.5561C51.2315 26.5561 50.6917 26.0157 50.6917 25.3493C50.6917 23.3494 52.3124 21.7287 54.3117 21.7287H57.9322C59.9316 21.7287 61.5523 23.3494 61.5523 25.3493V39.8304C61.5523 40.4969 61.0124 41.0373 60.3454 41.0373Z" fill="#9BC8C2"/>
<path d="M70 2.42012V44.754H68.2506C68.0348 44.691 67.8111 44.6584 67.5868 44.6579H65.1731V4.83383H67.5868C68.2271 4.83703 68.8412 4.58017 69.2882 4.122C69.7463 3.67503 70.0037 3.06039 70 2.42012Z" fill="#9BC8C2"/>
<path d="M50.6919 39.8304C48.5649 39.8304 46.7114 38.3833 46.1966 36.3199L45.0357 31.6761C44.9455 31.3162 45.0261 30.9344 45.2541 30.6418C45.4821 30.3486 45.8324 30.1772 46.2036 30.1761H55.1797C55.5513 30.1761 55.9022 30.3475 56.1313 30.6407C56.3598 30.9339 56.4405 31.3157 56.3502 31.6761L55.1893 36.3199C54.674 38.3838 52.8188 39.832 50.6919 39.8304Z" fill="#46B29D"/>
<path d="M68.2503 39.9271H65.1728V39.8304H48.278C46.9467 39.8347 45.8685 40.9129 45.8643 42.2441V67.5864C45.8685 68.9177 46.9467 69.9959 48.278 70.0002H67.5865C68.9178 69.9959 69.996 68.9177 69.9997 67.5864V42.2441C69.9981 41.1681 69.2847 40.2229 68.2503 39.9271Z" fill="#41767F"/>
<path d="M51.898 44.6579H63.966C64.6324 44.6579 65.1728 45.1977 65.1728 45.8642V48.2779C65.1728 48.9443 64.6324 49.4847 63.966 49.4847H51.898C51.2315 49.4847 50.6917 48.9443 50.6917 48.2779V45.8642C50.6917 45.1977 51.2315 44.6579 51.898 44.6579Z" fill="#9BC8C2"/>
<path d="M51.898 54.3116H63.966C64.6324 54.3116 65.1728 54.852 65.1728 55.5185V57.9322C65.1728 58.5986 64.6324 59.139 63.966 59.139H51.898C51.2315 59.139 50.6917 58.5986 50.6917 57.9322V55.5185C50.6917 54.852 51.2315 54.3116 51.898 54.3116Z" fill="#9BC8C2"/>
<path d="M18.1084 56.524H22.9358V68.7933H18.1084V56.524Z" fill="#285680"/>
<path d="M18.1084 5.23592H22.9358V18.0072H18.1084V5.23592Z" fill="#285680"/>
<path d="M16.9014 26.7574H24.1425V42.1437H16.9014V26.7574Z" fill="#285680"/>
<path d="M6.9108 44.6333C6.85259 44.6338 6.79439 44.6295 6.73725 44.6215C4.95794 44.3583 3.63681 42.8358 3.6272 41.0373V31.383C3.6272 30.7166 4.16761 30.1761 4.83405 30.1761C5.50049 30.1761 6.0409 30.7166 6.0409 31.383V41.0373C6.04518 41.6375 6.4868 42.1448 7.08115 42.2319C7.70807 42.3216 8.15931 42.8801 8.11445 43.5119C8.06959 44.1436 7.54413 44.6333 6.9108 44.6333Z" fill="#285680"/>
<path d="M34.1335 44.6333C33.5001 44.6333 32.9747 44.1436 32.9298 43.5119C32.885 42.8801 33.3362 42.3216 33.9631 42.2319C34.5575 42.1448 34.9991 41.6375 35.0034 41.0373V31.383C35.0034 30.7166 35.5438 30.1761 36.2102 30.1761C36.8767 30.1761 37.4171 30.7166 37.4171 31.383V41.0373C37.4075 42.8358 36.0863 44.3583 34.307 44.6215C34.2499 44.6295 34.1917 44.6338 34.1335 44.6333Z" fill="#285680"/>
<path d="M34.1344 43.4264C34.1339 43.702 34.1099 43.9765 34.0624 44.2472L31.7213 58.3306C31.5237 59.4909 30.5208 60.3411 29.3439 60.3459H11.7003C10.5234 60.3411 9.52051 59.4909 9.32347 58.3306L6.98185 44.2472C6.73567 42.8465 7.12389 41.4084 8.04239 40.3223C8.96088 39.2361 10.3146 38.6134 11.7366 38.6236H29.3076C31.9642 38.6236 34.1211 40.7703 34.1344 43.4264Z" fill="#84B5CB"/>
<path d="M31.3832 67.5865C31.373 68.9151 30.2986 69.9901 28.9695 70.0002H12.0746C10.7433 69.9959 9.66516 68.9178 9.66089 67.5865C9.67103 66.2573 10.746 65.1829 12.0746 65.1728H28.9695C30.3008 65.177 31.3789 66.2552 31.3832 67.5865Z" fill="#2C3E50"/>
<path d="M31.3833 28.9693C31.3795 29.6096 31.6369 30.2242 32.0951 30.6712C32.203 30.7812 32.3199 30.8821 32.4449 30.9729C32.1106 31.94 31.2001 32.5888 30.1764 32.5899H10.8678C9.84465 32.5888 8.93364 31.94 8.59935 30.9729C8.72431 30.8821 8.84126 30.7812 8.94913 30.6712C9.4073 30.2242 9.66469 29.6096 9.66096 28.9693C9.66042 28.108 9.20011 27.3123 8.4541 26.8819V20.5219C8.4541 17.1897 11.1556 14.4881 14.4884 14.4881H26.5558C29.8886 14.4881 32.5901 17.1897 32.5901 20.5219V26.8819C31.8441 27.3123 31.3838 28.108 31.3833 28.9693Z" fill="#9FC9D3"/>
<path d="M23.8216 9.66125H17.2228C16.5302 9.66125 15.8713 9.36381 15.4131 8.84475C14.9544 8.32623 14.7413 7.63523 14.8273 6.94796L15.4307 2.12108C15.5813 0.913159 16.6087 0.00641661 17.8263 0.00695061H23.2181C24.4351 0.00641661 25.4626 0.913159 25.6131 2.12108L26.2166 6.94796C26.3025 7.63523 26.0895 8.32623 25.6308 8.84475C25.1726 9.36381 24.5136 9.66125 23.8216 9.66125Z" fill="#9FC9D3"/>
<path d="M53.7083 0.00695038H67.5865C68.9178 0.0106884 69.996 1.08885 69.9997 2.42012C70.0034 3.0604 69.746 3.67504 69.2879 4.122C68.8409 4.58018 68.2268 4.83704 67.5865 4.83383H54.7827L53.7083 0.00695038Z" fill="#46B29D"/>
<path d="M55.5064 4.02536L54.7828 4.83384L47.9523 12.4605C47.8797 12.2074 45.7597 13.1846 45.6374 12.9433L45.412 10.7554C45.0377 9.99554 45.9247 8.67281 45.2732 8.2141L48.3021 4.83384L51.9104 0.803163C52.8 -0.189554 54.3267 -0.273393 55.3195 0.616261C56.3127 1.50592 56.3965 3.0321 55.5064 4.02536Z" fill="#9BC8C2"/>
<path d="M46.2146 17.9517L46.2023 17.9634L44.3077 19.4357C43.9066 19.7449 43.3876 19.8575 42.8947 19.7433C42.4013 19.6285 41.9853 19.299 41.7615 18.8445L37.5979 10.4211C37.3693 9.96882 37.3576 9.43748 37.5664 8.97556C37.7746 8.51365 38.1816 8.17135 38.6718 8.04372L40.615 7.5252L40.9888 7.41627C42.4643 7.02911 44.0353 7.32121 45.2732 8.213C45.9433 8.69147 46.4827 9.33014 46.8421 10.0713L47.6506 11.7123C47.7734 11.9521 47.8748 12.2026 47.9523 12.4605C48.576 14.4742 47.8834 16.6637 46.2146 17.9517Z" fill="#46B29D"/>
<path d="M41.0375 10.8676C40.4645 10.8676 39.9705 10.4639 39.8557 9.90261L38.8422 4.83383H35.0032C34.3368 4.83383 33.7969 4.29341 33.7969 3.62697C33.7969 2.96053 34.3368 2.42012 35.0032 2.42012H39.8306C40.4041 2.42012 40.8986 2.82383 41.0134 3.3856L42.2197 9.41987C42.2838 9.73333 42.2208 10.0596 42.0441 10.3266C41.8678 10.5936 41.5923 10.7795 41.2788 10.8435C41.1993 10.8601 41.1186 10.8681 41.0375 10.8676Z" fill="#BDC3C7"/>
<path d="M44.6577 25.3493C44.1696 25.3493 43.7301 25.055 43.5432 24.6043C43.3563 24.1531 43.4593 23.634 43.8048 23.2891L46.5176 20.5753L43.6537 16.2776C43.2981 15.7238 43.4524 14.9869 44.0003 14.6222C44.5482 14.2569 45.2872 14.3984 45.6616 14.9394L49.0744 20.0599C49.3932 20.5384 49.3302 21.1749 48.9238 21.5813L45.511 24.9958C45.2846 25.2216 44.9781 25.3493 44.6577 25.3493Z" fill="#BDC3C7"/>
<path d="M9.66092 28.9693C9.66465 29.6096 9.40726 30.2242 8.94909 30.6712C8.84122 30.7812 8.72427 30.8821 8.59931 30.9729C8.20041 31.2431 7.72942 31.3862 7.24774 31.383H2.42033C1.08905 31.3793 0.0108935 30.3006 0.00662142 28.9693C0.00341738 28.329 0.260274 27.7149 0.718985 27.2679C1.16595 26.8098 1.78006 26.5524 2.42033 26.5561H7.24774C8.58062 26.5561 9.66092 27.6364 9.66092 28.9693Z" fill="#84B5CB"/>
<path d="M41.0374 28.9693C41.0331 30.3006 39.955 31.3793 38.6237 31.383H33.7968C33.3151 31.3862 32.8436 31.2431 32.4447 30.9729C32.3197 30.8821 32.2028 30.7812 32.0949 30.6712C31.6367 30.2242 31.3794 29.6096 31.3831 28.9693C31.3831 27.6364 32.4634 26.5561 33.7968 26.5561H38.6237C39.9523 26.5657 41.0272 27.6407 41.0374 28.9693Z" fill="#84B5CB"/>
</g>
<defs>
<clipPath id="clip0">
<rect width="70" height="70" fill="white"/>
</clipPath>
</defs>
</svg>
