<svg width="70" height="70" viewBox="0 0 70 70" fill="none" xmlns="http://www.w3.org/2000/svg">
<g clip-path="url(#clip0)">
<path d="M45.2578 33.7676H39.0869C38.1527 33.7676 37.3884 33.0033 37.3884 32.0691L36.5393 17.6774C36.5393 17.6774 35.1651 5.7564 42.2927 4.18988C42.2927 4.18988 45.1907 -1.44949 54.472 0.35725C54.5988 0.381996 54.7208 0.427523 54.844 0.465667C56.9821 1.12889 58.9699 2.30234 60.6225 3.94652C65.677 8.97612 64.6606 14.9185 64.7874 15.6576C64.7874 19.786 64.8526 15.1972 63.9382 32.0692C63.9382 33.0034 63.1739 33.7677 62.2398 33.7677H55.6747" fill="#7F7369"/>
<path d="M46.3307 33.7675V31.7479C42.5159 30.0622 40.1375 26.4547 39.9371 22.5C39.9357 22.4738 39.9316 22.3905 39.9311 22.3749C39.9256 22.2351 39.9221 22.0949 39.9221 21.9537C39.924 15.5996 39.9182 15.9853 39.9268 15.8808C39.8631 12.4895 40.3879 5.37508 45.7818 4.1896C45.7818 4.1896 47.5578 0.734583 52.7808 0.0997995C48.8011 -0.337563 44.1329 0.844915 42.2925 4.1896C37.4829 5.2467 36.3258 11.103 36.4398 15.9993C36.4415 16.0676 36.4433 16.1341 36.4453 16.1989C36.4735 17.1066 36.5392 17.6771 36.5392 17.6771L37.3884 32.0688C37.3884 33.003 38.1527 33.7673 39.0868 33.7673C40.5816 33.7675 44.6972 33.7675 46.3307 33.7675Z" fill="#72655A"/>
<path d="M31.2069 65.2503L33.0327 48.9358C33.6725 44.0096 33.4102 42.117 34.9998 40.1881C34.5088 39.5912 33.808 39.0345 33.3459 38.7523L33.295 38.7397C31.5762 37.7101 30.1291 37.667 26.935 36.7882L23.6688 35.2248V31.3233C20.9324 32.5333 17.7858 32.491 15.1517 31.3456L15.1376 35.241L11.8853 36.7884C8.71183 37.6616 7.24757 37.7082 5.52533 38.7399L5.47447 38.7524C5.32955 38.8409 5.17642 38.9475 5.02549 39.067C2.56442 40.8339 2.52545 43.1291 2.3134 44.8252L1.336 53.5598C-0.0406163 66.0601 0.00108293 65.0545 0.00108293 66.0181C-0.0205186 67.6046 0.95278 69.9998 3.90959 69.9998C4.18385 69.9998 34.7663 70.0013 34.9998 69.9974C32.351 69.9531 30.9749 67.9327 31.2069 65.2503Z" fill="#DD9A5E"/>
<path d="M3.5223 66.0131C3.49851 64.6349 3.78671 64.6498 5.94591 42.2822C6.17163 40.4319 6.73258 38.9202 8.34668 37.6692C8.10223 37.7467 6.86684 37.9361 5.52522 38.7399L5.47436 38.7524C5.3196 38.8469 5.16579 38.9559 5.02538 39.067C2.56431 40.8338 2.52535 43.1291 2.3133 44.8252C2.29566 44.9798 0.00083879 65.342 0.00083879 66.0181C-0.0207627 67.6046 0.952536 69.9997 3.90935 69.9997H7.43067C4.89454 69.9997 3.47773 68.092 3.5223 66.0131Z" fill="#D38D54"/>
<path d="M18.6596 38.5725V32.1916C17.3915 32.1064 16.2047 31.8033 15.1515 31.3456L15.1375 35.241L18.6596 38.5725Z" fill="#D38D54"/>
<path d="M69.9716 65.2503C67.4846 43.2263 67.6247 43.8478 67.402 42.7713C67.0406 41.0239 65.9872 39.6454 64.5249 38.7523L64.4742 38.7397C63.8518 38.3669 63.158 38.0731 62.413 37.8584L55.2422 36.0733C55.0091 35.9678 54.8478 35.6206 54.8478 35.2248V31.7661C52.1452 32.9448 48.9953 32.9261 46.3307 31.7481V35.225C46.3307 35.6208 46.1693 35.9679 45.9362 36.0734C39.8702 37.6895 38.521 37.6517 36.7043 38.7399L36.6536 38.7524C34.6468 39.978 33.8712 41.639 33.6038 43.8317L31.2069 65.2503C30.9666 68.027 32.4387 69.9997 35.0887 69.9997C39.3058 69.9997 62.7192 69.9997 66.0899 69.9997C69.0467 69.9997 70.02 67.6046 69.9984 66.0181C69.9984 66.0164 69.9984 66.0148 69.9984 66.0131C70.0032 65.7259 69.9901 65.465 69.9716 65.2503Z" fill="#EAB883"/>
<path d="M34.7014 66.0181C34.7014 66.0164 34.7014 66.0148 34.7014 66.0131C34.6964 65.7259 34.7094 65.465 34.728 65.2503L37.125 42.564C37.3812 40.4629 38.0969 38.803 40.1149 37.5225C39.5225 37.7019 38.172 37.8606 36.7043 38.7397L36.6536 38.7523C34.6468 39.9779 33.8711 41.639 33.6038 43.8315L31.2068 65.2501C30.9668 68.0269 32.4387 69.9996 35.0887 69.9996C37.2684 69.9996 36.43 69.9996 38.61 69.9996C35.6529 69.9997 34.6798 67.6046 34.7014 66.0181Z" fill="#D8A373"/>
<path d="M68.6629 53.557C67.5327 43.5238 67.5815 43.6401 67.402 42.7711C67.0386 41.0139 65.9735 39.6366 64.5249 38.7522C64.5105 38.7486 64.4597 38.736 64.4741 38.7396C63.8518 38.3668 63.158 38.073 62.413 37.8583L55.2422 36.0732C55.0091 35.9676 54.8478 35.6205 54.8478 35.2247V31.766V31.7479C52.1233 32.9516 48.9893 32.9226 46.3306 31.7479V31.766V35.2247C46.3306 35.6205 46.1693 35.9676 45.9362 36.0732C39.8702 37.6892 38.521 37.6513 36.7043 38.7396C36.6899 38.7431 36.6391 38.7557 36.6536 38.7522C34.6649 39.9662 33.8708 41.6421 33.6038 43.8314L32.5154 53.5569L39.3756 54.2767C39.7404 54.315 40.0117 54.6317 39.9932 54.9981L39.2396 69.9996C47.637 69.9996 53.5862 69.9996 61.98 69.9996L61.19 55.0563C61.169 54.6577 61.4637 54.3124 61.8608 54.2707L68.6629 53.557Z" fill="#DD6A6A"/>
<path d="M32.5154 53.557L35.9258 53.9148L37.1251 42.5639C37.3812 40.4632 38.0968 38.803 40.115 37.5224C39.2623 37.751 38.0212 37.9509 36.7044 38.7397C36.6901 38.7433 36.6392 38.7559 36.6537 38.7523C35.186 39.6482 34.1366 41.0303 33.7766 42.7713C33.5555 43.8388 33.5974 44.0718 32.5154 53.557Z" fill="#A82626"/>
<path d="M33.3202 38.7523C33.3058 38.7488 33.255 38.7362 33.2693 38.7397C31.5467 37.7078 30.0764 37.6594 26.9316 36.7938L26.9346 36.7882L23.6684 35.2248L23.6448 35.2605C23.6446 35.2561 23.6444 35.2519 23.6441 35.2477L19.3843 39.2583L15.137 35.241L11.8848 36.7883C8.71114 37.6616 7.24702 37.7082 5.52478 38.7399L5.47392 38.7524C3.46703 39.9779 2.69156 41.6395 2.42414 43.8317L1.33545 53.5597L8.06446 54.2658C8.4887 54.3103 8.80411 54.6788 8.78278 55.1048L8.03493 69.9997C14.9485 69.9997 23.4438 69.9997 30.7753 69.9997L29.9854 55.0582C29.9642 54.6585 30.2598 54.3124 30.6579 54.2705L32.4565 54.0819C33.7753 43.1412 33.3896 42.1592 34.9873 40.2037C34.6369 39.7746 33.7025 38.9857 33.3202 38.7523Z" fill="#19557E"/>
<path d="M5.94595 42.2822C6.17167 40.4319 6.73263 38.9202 8.34672 37.6692C8.02694 37.76 6.82477 37.9614 5.52527 38.7399L5.47441 38.7524C4.99822 39.0432 4.28919 39.6136 3.8074 40.2036C2.10252 42.2907 2.56613 43.9367 1.33594 53.5599L4.81638 53.925C4.80599 54.0358 4.95597 52.5369 5.94595 42.2822Z" fill="#345E76"/>
<path d="M58.114 36.7882L55.2422 36.0733C55.0091 35.9678 54.8478 35.6206 54.8478 35.2248V31.3435V31.3255C52.1006 32.5393 48.9628 32.4884 46.3306 31.3255V31.3435V35.2248C46.3306 35.6206 46.1693 35.9678 45.9362 36.0733L43.0212 36.799C46.5247 42.6913 54.6133 42.6936 58.114 36.7882Z" fill="#EAB883"/>
<path d="M6.03467 17.0213V13.3499C6.03467 2.5431 18.2518 -3.70931 27.017 2.39682C33.8923 7.19714 32.5828 14.2562 32.734 17.0213" fill="#4C4846"/>
<path d="M6.03467 17.0213V13.3499C6.03467 2.5431 18.2518 -3.70931 27.017 2.39682C33.8923 7.19714 32.5828 14.2562 32.734 17.0213" fill="#4C4846"/>
<path d="M20.7154 0.0667236C12.9517 -0.704095 6.03467 5.36593 6.03467 13.3499V17.0213H8.69671V13.3499C8.69671 6.48661 13.908 0.74307 20.7154 0.0667236Z" fill="#3F3B39"/>
<path d="M33.3984 18.2151C33.3984 19.7536 31.9091 21.0006 30.072 21.0006V15.4298C31.9091 15.4298 33.3984 16.6768 33.3984 18.2151Z" fill="#DD9A5E"/>
<path d="M5.37012 18.2151C5.37012 19.7536 6.85939 21.0006 8.69662 21.0006V15.4298C6.85939 15.4298 5.37012 16.6768 5.37012 18.2151Z" fill="#DD9A5E"/>
<path d="M30.0723 18.4969V21.0006C31.9094 21.0006 33.3986 19.7536 33.3986 18.2151C33.3986 17.7648 33.2702 17.3397 33.0436 16.9633C32.496 17.8728 31.3715 18.4969 30.0723 18.4969Z" fill="#D38D54"/>
<path d="M5.7254 16.9633C4.62168 18.7965 6.20515 21.0006 8.69684 21.0006V18.4969C7.39747 18.4969 6.27296 17.8728 5.7254 16.9633Z" fill="#D38D54"/>
<path d="M27.6095 11.5595C27.5707 10.4921 26.6916 9.90717 25.8435 10.0392C25.6453 10.07 25.4264 10.1021 25.2861 10.122C21.0725 10.7201 17.0667 10.6824 12.9254 10.0392C12.0838 9.90813 11.1977 10.4836 11.1594 11.5597C11.1016 13.1456 10.4423 14.3248 9.43785 15.0593C9.01936 15.3655 8.71065 15.4702 8.69657 15.478C8.69657 22.3963 8.61399 22.8587 8.98463 24.4259C9.33955 25.9221 9.9958 27.2596 10.8543 28.3944C15.8271 34.971 26.2386 33.687 29.3257 25.886C30.3476 23.3046 30.0722 21.3449 30.0722 15.478C30.0323 15.4482 27.72 14.6282 27.6095 11.5595Z" fill="#EDAE6B"/>
<path d="M12.6156 26.1916C11.861 23.5015 12.2797 21.8583 12.1617 16.7595C12.1617 16.2345 12.4253 15.7884 12.747 15.5603C14.0159 14.6577 14.5919 13.1818 14.6279 11.6064C14.6403 11.0764 14.8886 10.6214 15.255 10.336C14.7464 10.2852 14.2527 10.2265 13.7965 10.1653C13.531 10.1297 13.2279 10.0863 12.9254 10.0392C12.0861 9.90853 11.198 10.4819 11.1594 11.5597C11.1015 13.1429 10.4435 14.324 9.43789 15.0593C9.01926 15.3656 8.71068 15.4702 8.6966 15.478C8.6966 22.4385 8.6925 22.0789 8.70658 22.4216C8.92246 27.3047 12.4071 31.276 16.7564 32.3135C16.5541 32.1625 13.4638 29.2185 12.6156 26.1916Z" fill="#DD9A5E"/>
<path d="M20.4407 46.9348V38.2637L19.3843 39.2583L18.3279 38.259V46.9348C18.3279 47.5183 18.8008 47.9912 19.3843 47.9912C19.9678 47.9912 20.4407 47.5183 20.4407 46.9348Z" fill="#345E76"/>
<path d="M23.6686 35.2248L19.3845 39.2583L21.6971 41.5888C22.1387 42.0338 22.8706 41.9905 23.2567 41.4964L26.9348 36.7882L23.6686 35.2248Z" fill="#DADADA"/>
<path d="M25.3133 36.0121L23.6686 35.2248L19.3845 39.2583L20.9149 40.8005L25.3133 36.0121Z" fill="#CECCCA"/>
<path d="M22.0117 41.8051C22.2052 41.8915 22.4183 41.9161 22.6224 41.8792L22.0117 41.8051Z" fill="#CECCCA"/>
<path d="M15.1372 35.241L19.3845 39.2583L17.0719 41.5888C16.6303 42.0338 15.8985 41.9905 15.5124 41.4964L11.8342 36.7882L15.1372 35.241Z" fill="#DADADA"/>
<path d="M16.3905 39.2427L17.8544 40.8005L19.3846 39.2583L15.1375 35.241L13.3962 36.0566L16.3905 39.2427Z" fill="#CECCCA"/>
<path d="M49.8697 37.3769V32.1905C48.6063 32.104 47.4081 31.8014 46.3306 31.3253C46.2236 34.4051 46.6097 35.7682 45.9362 36.0733L43.0212 36.799C43.7469 38.0195 44.728 39.0513 45.8847 39.8105L48.9109 38.6978C48.9112 38.6976 49.8697 38.2218 49.8697 37.3769Z" fill="#D8A373"/>
<path d="M60.2224 18.4576C60.8238 18.4857 61.2977 18.9808 61.2977 19.5829V20.391C61.2948 21.8262 61.3948 23.2197 60.8438 25.0455C60.2888 26.8858 59.2432 28.5766 57.6718 29.9746C51.0417 35.8789 40.3882 31.4217 39.9369 22.5C39.9349 22.4597 39.9364 22.5115 39.9309 22.3749C39.9254 22.2351 39.9219 22.0949 39.9219 21.9537C39.9219 20.6809 39.9219 17.7759 39.9219 16.5323V15.9909C39.9219 15.362 40.365 14.8243 40.9802 14.6941C42.0718 14.4633 43.8356 13.8362 45.4356 12.1332C45.8377 11.7053 46.5236 11.7276 46.8974 12.1804C48.45 14.0616 52.6424 18.1033 60.2224 18.4576Z" fill="#F7CF9C"/>
<path d="M44.5487 26.6933C43.1374 23.8414 43.4651 21.8197 43.4432 17.8557C43.4432 16.48 43.4432 15.1081 43.4432 13.73C42.5028 14.2816 41.6243 14.5581 40.9802 14.6942C40.3648 14.8244 39.9219 15.3621 39.9219 15.991C39.9219 17.3694 39.9219 20.4307 39.9219 21.9537C39.9219 22.1303 39.9312 22.4054 39.9319 22.4217C39.9324 22.4359 39.9469 22.6823 39.9567 22.8063C40.4499 29.08 46.2343 33.5109 52.3704 32.4942C48.9971 31.9351 46.0813 29.7804 44.5487 26.6933Z" fill="#EAB883"/>
<path d="M60.1741 37.3012L58.1138 36.7883C56.5361 39.45 53.7456 41.2202 50.5642 41.2202C50.5642 41.2201 60.2168 50.8738 60.1741 37.3012Z" fill="#B72C2C"/>
<path d="M40.9997 37.3012L43.06 36.7883C44.6377 39.45 47.4282 41.2202 50.6096 41.2202C50.6096 41.2201 40.957 50.8738 40.9997 37.3012Z" fill="#B72C2C"/>
<path d="M46.0181 39.8683C44.315 40.7751 42.3524 41.2078 41.0955 39.5261C42.0956 49.7348 50.6097 41.2201 50.6097 41.2201C48.9298 41.2201 47.3591 40.7261 46.0181 39.8683Z" fill="#B94D4D"/>
<path d="M55.1558 39.8683C56.8589 40.7751 58.8215 41.2078 60.0785 39.5261C59.0784 49.7348 50.5642 41.2201 50.5642 41.2201C52.2442 41.2201 53.8148 40.7261 55.1558 39.8683Z" fill="#B94D4D"/>
<path d="M42.3024 37.9093C38.2535 32.8051 30.4343 33.3589 27.0712 38.7996C25.1031 41.9791 25.8456 44.8761 25.6825 45.7624H44.3166C44.2575 43.9421 44.7594 41.0039 42.3024 37.9093Z" fill="#996123"/>
<path d="M28.2104 41.5407C28.2521 41.3642 28.3505 41.0153 28.3549 41.0006C29.3934 37.5563 32.3974 34.9066 36.1379 34.4506C32.4349 33.9993 28.9407 35.7732 27.0711 38.7996C25.103 41.9791 25.8457 44.8755 25.6825 45.7624H27.9591C27.9617 43.8187 27.8869 42.912 28.2104 41.5407Z" fill="#8E551C"/>
<path d="M47.0904 53.5608C46.2718 51.0213 45.2105 49.436 44.4014 48.6094C43.9344 49.0696 43.2867 49.3968 42.5498 49.5142C43.9014 51.4632 43.6053 53.4083 43.5379 54.5656C43.5071 55.0936 43.9823 55.5081 44.5001 55.4007L46.2252 55.0429C46.8964 54.9037 47.3006 54.213 47.0904 53.5608Z" fill="#996123"/>
<path d="M45.3095 47.0027C45.3095 48.4945 43.8656 49.7033 42.0845 49.7033V44.3024C43.8656 44.3024 45.3095 45.5113 45.3095 47.0027Z" fill="#EFD0A3"/>
<path d="M22.9086 53.5608C23.7271 51.0213 24.7884 49.436 25.5975 48.6094C26.0646 49.0696 26.7122 49.3968 27.4491 49.5142C26.0975 51.4632 26.3937 53.4083 26.4611 54.5656C26.4918 55.0936 26.0166 55.5081 25.4987 55.4007L23.7736 55.0429C23.1027 54.9037 22.6984 54.213 22.9086 53.5608Z" fill="#8E551C"/>
<path d="M24.6897 47.0027C24.6897 48.4945 26.1336 49.7033 27.9147 49.7033V44.3024C26.1336 44.3024 24.6897 45.5113 24.6897 47.0027Z" fill="#EFD0A3"/>
<path d="M42.084 47.3902V49.7035C44.474 49.7035 46.0022 47.616 44.9987 45.8462C44.4813 46.759 43.3709 47.3902 42.084 47.3902Z" fill="#E2BF91"/>
<path d="M25 45.8462C23.9947 47.6192 25.5315 49.7035 27.9147 49.7035V47.3902C26.6279 47.3902 25.5175 46.759 25 45.8462Z" fill="#E2BF91"/>
<path d="M46.9796 69.9997L46.2449 63.4338C46.0772 62.0588 45.5937 60.904 44.2232 60.067L44.1896 60.0586C42.9903 59.3402 42.1201 59.3701 38.07 58.2912C37.6223 58.0884 37.8822 57.2197 37.8086 55.0135C35.9992 55.8053 33.9046 55.7724 32.163 55.0014C32.0914 57.1564 32.3511 58.0874 31.9016 58.2912C27.8594 59.3681 26.9829 59.3394 25.7822 60.0586L25.7486 60.067C24.7825 60.6571 24.0817 61.5688 23.8415 62.731C23.6982 63.4238 23.7357 63.48 22.9922 69.9997H46.9796Z" fill="#EFD0A3"/>
<path d="M22.9922 69.9997C28.8093 69.9997 41.1589 69.9997 46.9797 69.9997L46.245 63.4338C46.0777 62.0605 45.592 60.9026 44.2234 60.067L44.1897 60.0587C43.0007 59.3464 42.0421 59.3446 38.8314 58.4807C38.8314 58.5109 38.8314 59.3447 38.8314 59.3302C38.8314 59.9389 38.6884 60.5186 38.4351 61.0295C38.3933 61.1141 38.3253 61.2392 38.2604 61.3439C38.2574 61.3487 38.2154 61.4149 38.2122 61.4197C38.1451 61.5226 38.0733 61.6216 38.0031 61.7101C37.9698 61.7519 37.9249 61.8061 37.8895 61.846C37.8837 61.8524 37.8781 61.8588 37.8724 61.8653C37.8498 61.8911 37.827 61.9165 37.8036 61.9417C37.8011 61.9443 37.7985 61.947 37.7961 61.9497C37.7955 61.9503 37.7951 61.9507 37.7947 61.9513C37.7912 61.9551 37.7876 61.9588 37.784 61.9626C37.757 61.9912 37.7294 62.0191 37.7015 62.0467C37.6923 62.0558 37.6833 62.0653 37.6741 62.0743C37.638 62.1094 37.6012 62.1439 37.5639 62.1777C37.5533 62.1872 37.5422 62.1964 37.5315 62.206C37.5081 62.2269 37.4838 62.2467 37.4602 62.2673C37.4565 62.2706 37.4528 62.2738 37.4491 62.2769C37.4347 62.2888 37.4201 62.3004 37.4055 62.3122C37.3804 62.3323 37.3554 62.3524 37.33 62.3718C37.314 62.3841 37.2977 62.3961 37.2815 62.4083C37.2566 62.4268 37.2316 62.4449 37.2063 62.4629C37.1938 62.4716 37.1813 62.4804 37.1687 62.489C37.1644 62.4918 37.1603 62.4948 37.1561 62.4977C37.13 62.5155 37.1035 62.533 37.0768 62.5502C37.0727 62.5528 37.0687 62.5554 37.0646 62.558C37.0525 62.5659 37.0403 62.5739 37.028 62.5815C37.0054 62.5956 36.9826 62.6091 36.9596 62.6227C36.952 62.6272 36.9445 62.632 36.9368 62.6363C36.9335 62.6383 36.9301 62.6403 36.9268 62.6422C36.9168 62.6482 36.907 62.6543 36.8969 62.66C36.8529 62.6852 36.8083 62.7095 36.7632 62.7329C36.757 62.736 36.7509 62.739 36.7446 62.742C36.7425 62.743 36.7405 62.7441 36.7384 62.7452C36.7309 62.749 36.7234 62.7526 36.7159 62.7563C36.6859 62.7713 36.656 62.7863 36.6256 62.8007C36.6092 62.8083 36.5927 62.8156 36.5763 62.823C36.5459 62.8366 36.5154 62.8502 36.4847 62.8632C36.4661 62.871 36.4473 62.8785 36.4286 62.886C36.3992 62.8979 36.3697 62.9094 36.34 62.9204C36.3207 62.9277 36.3013 62.9348 36.2819 62.9416C36.2517 62.9524 36.2212 62.9627 36.1906 62.9727C36.1754 62.9776 36.1602 62.9825 36.1451 62.9874C36.1412 62.9887 36.1375 62.9899 36.1337 62.9911C36.1252 62.9937 36.1165 62.9961 36.108 62.9987C36.083 63.0062 36.058 63.0136 36.0328 63.0205C36.0205 63.0239 36.0083 63.0275 35.9959 63.0309C35.9918 63.032 35.9877 63.0332 35.9836 63.0343C35.9333 63.0477 35.8826 63.0602 35.8314 63.0715C35.8239 63.0732 35.8163 63.0747 35.8087 63.0763C35.786 63.0812 35.7635 63.086 35.7406 63.0905C35.6799 63.1024 35.6187 63.1128 35.5569 63.1218C35.4334 63.1399 35.3081 63.1519 35.1811 63.1578C35.1659 63.1586 35.1508 63.1589 35.1358 63.1593C35.1277 63.1596 35.1195 63.1598 35.1113 63.1601C35.0892 63.1608 35.0672 63.1612 35.0452 63.1615C35.039 63.1615 35.0329 63.1615 35.0268 63.1616C35.0253 63.1616 35.0238 63.1616 35.0223 63.1616C35.0147 63.1616 35.007 63.1618 34.9994 63.1618C34.9917 63.1618 34.984 63.1616 34.9764 63.1616C34.9749 63.1616 34.9734 63.1616 34.9717 63.1616C34.9656 63.1616 34.9596 63.1616 34.9534 63.1615C34.9314 63.1612 34.9094 63.1608 34.8872 63.1601C34.879 63.1598 34.871 63.1596 34.8628 63.1593C34.8477 63.1588 34.8326 63.1585 34.8175 63.1578C34.6905 63.1519 34.5651 63.1397 34.4417 63.1218C34.3799 63.1128 34.3186 63.1024 34.2579 63.0905C34.2351 63.086 34.2125 63.0812 34.1898 63.0763C34.1823 63.0747 34.1747 63.0733 34.1672 63.0715C34.116 63.0602 34.0653 63.0476 34.015 63.0343C34.0109 63.0332 34.0068 63.032 34.0027 63.0309C33.9904 63.0275 33.9781 63.0239 33.9658 63.0205C33.9409 63.0136 33.9161 63.0063 33.8914 62.9989C33.8826 62.9962 33.8736 62.9939 33.8649 62.9911C33.861 62.9899 33.8573 62.9887 33.8535 62.9874C33.8383 62.9827 33.8232 62.9777 33.808 62.9727C33.7774 62.9627 33.747 62.9524 33.7167 62.9416C33.6973 62.9348 33.6778 62.9277 33.6586 62.9204C33.6289 62.9094 33.5992 62.8979 33.57 62.886C33.5512 62.8785 33.5325 62.871 33.5139 62.8632C33.4832 62.8502 33.4527 62.8366 33.4223 62.823C33.4059 62.8156 33.3892 62.8083 33.373 62.8007C33.3426 62.7865 33.3127 62.7714 33.2827 62.7563C33.2752 62.7526 33.2677 62.749 33.2602 62.7452C33.2581 62.7441 33.2561 62.7431 33.254 62.742C33.2479 62.739 33.2416 62.736 33.2354 62.7329C33.1903 62.7095 33.1457 62.6852 33.1017 62.66C33.0917 62.6543 33.0817 62.6482 33.0718 62.6422C33.0685 62.6403 33.0651 62.6383 33.0618 62.6363C33.0541 62.6318 33.0466 62.6272 33.0391 62.6227C33.0161 62.6091 32.9933 62.5956 32.9707 62.5815C32.9584 62.5739 32.9463 62.5659 32.9341 62.558C32.93 62.5554 32.9259 62.5528 32.9219 62.5502C32.1562 62.0552 31.5914 61.3059 31.33 60.4389C31.0962 59.6638 31.1878 59.1117 31.1673 58.4741L30.3538 58.6766C27.8021 59.373 26.9208 59.3764 25.7817 60.0588L25.748 60.0671C24.7943 60.6497 24.0825 61.5632 23.8409 62.7311C23.6979 63.4222 23.7264 63.5573 22.9922 69.9997Z" fill="#81CDBB"/>
<path d="M25.626 65.86C25.9197 63.2115 25.7134 60.9893 27.9416 59.5588L27.9753 59.5501C28.2223 59.3945 28.4882 59.261 28.7665 59.145C28.8175 59.1048 28.867 59.068 28.9145 59.0348C27.7873 59.3567 26.8514 59.4181 25.7824 60.0585L25.7488 60.0669C24.7754 60.6613 24.0752 61.5783 23.8364 62.7597C23.6953 63.4543 23.7274 63.5506 22.9924 69.9996H25.1854L25.626 65.86Z" fill="#248F76"/>
<path d="M29.154 69.9997L29.2521 66.9427C29.2709 66.3595 28.8134 65.8717 28.2302 65.8529C27.6469 65.8301 27.1591 66.2915 27.1404 66.8748L27.04 69.9997H29.154Z" fill="#248F76"/>
<path d="M42.9595 69.9997L42.8591 66.8748C42.8404 66.2918 42.3571 65.8319 41.7694 65.8529C41.1862 65.8717 40.7287 66.3595 40.7474 66.9427L40.8455 69.9997H42.9595Z" fill="#248F76"/>
<path d="M34.1238 60.5149C34.1415 60.4888 34.9499 60.2495 34.9873 59.2256V55.5933C33.9575 55.588 33.0037 55.3737 32.163 55.0016C32.0914 57.1572 32.3511 58.0876 31.9016 58.2913L31.1677 58.4739C31.1882 59.1105 31.0966 59.6622 31.3304 60.4387C31.4301 60.769 31.5873 61.105 31.7425 61.3497L34.1238 60.5149Z" fill="#E2BF91"/>
<path d="M34.5114 41.951C32.9215 44.5957 29.5465 44.1888 28.3481 43.9467C28.1239 43.9014 27.915 44.0737 27.915 44.3024C27.915 48.6057 27.7836 49.552 28.2159 50.9814C29.093 53.8896 31.778 55.9806 34.9149 56.0155C38.8246 56.0643 42.0842 52.9167 42.0842 48.9321C42.0842 47.1307 42.0842 45.8622 42.0842 44.3025C42.0842 44.0738 41.8752 43.9015 41.6511 43.9468C40.4528 44.1889 37.0778 44.5957 35.4879 41.9511C35.2661 41.5824 34.733 41.5824 34.5114 41.951Z" fill="#FCE3BB"/>
<path d="M31.5408 50.1509C31.356 49.0845 31.4747 48.6727 31.4364 44.0028C30.1896 44.2429 28.973 44.0728 28.3482 43.9467C28.124 43.9014 27.9151 44.0737 27.9151 44.3024C27.9151 48.6711 27.7863 49.5603 28.216 50.9814C29.2828 54.5191 32.9927 56.7639 36.7603 55.7947C34.0841 55.1067 32.0204 52.9102 31.5408 50.1509Z" fill="#EFD0A3"/>
</g>
<defs>
<clipPath id="clip0">
<rect width="70" height="70" fill="white"/>
</clipPath>
</defs>
</svg>
