<svg width="70" height="70" viewBox="0 0 70 70" fill="none" xmlns="http://www.w3.org/2000/svg">
<g clip-path="url(#clip0)">
<path d="M4.82735 0H65.1727C67.8387 0 70 2.16133 70 4.82735V65.1727C70 67.8387 67.8387 70 65.1727 70H4.82735C2.16133 70 0 67.8387 0 65.1727V4.82735C0 2.16133 2.16133 0 4.82735 0V0Z" fill="#525C66"/>
<path d="M15.6896 7.24129H6.03436C5.36786 7.24129 4.82739 6.70082 4.82739 6.03432C4.82739 5.36781 5.36786 4.82735 6.03436 4.82735H15.6896C16.3561 4.82735 16.8966 5.36781 16.8966 6.03432C16.8966 6.70082 16.3561 7.24129 15.6896 7.24129Z" fill="#BDC3C7"/>
<path d="M10.8622 12.0692H6.03436C5.36786 12.0692 4.82739 11.5287 4.82739 10.8622C4.82739 10.1957 5.36786 9.65523 6.03436 9.65523H10.8622C11.5287 9.65523 12.0692 10.1957 12.0692 10.8622C12.0692 11.5287 11.5287 12.0692 10.8622 12.0692Z" fill="#BDC3C7"/>
<path d="M35.0001 22.1345L34.9878 39.0674C33.7088 39.1998 32.1034 39.8877 31.6089 43.2672C30.764 49.1568 29.0742 56.7244 26.5396 56.7244C23.9451 56.7244 23.0517 53.6226 22.4968 51.6311C21.794 48.9271 21.3133 46.1703 21.0607 43.3879C20.7002 40.8025 19.8436 38.3106 18.5378 36.0499C18.1036 35.2654 17.6331 34.5049 17.1621 33.7567V33.745C16.1121 29.6776 16.3658 25.019 19.5637 22.0379C23.6434 18.2365 30.9327 18.5377 35.0001 22.1345Z" fill="#71C285"/>
<path d="M52.8258 33.7567C52.814 33.769 52.814 33.769 52.814 33.7813C52.343 34.5295 51.8842 35.2777 51.4623 36.0499C50.1512 38.3085 49.2941 40.8009 48.9394 43.3879C48.6826 46.1703 48.1982 48.9277 47.4916 51.6311C46.9485 53.6226 46.055 56.7244 43.4483 56.7244C40.9259 56.7244 39.2244 49.1568 38.3795 43.2672C37.8844 39.8877 36.2791 39.1998 35 39.0674V22.1345C39.0674 18.5377 46.3567 18.2365 50.4241 22.0379C53.6343 25.019 53.8757 29.6899 52.8258 33.7567Z" fill="#71C285"/>
<path d="M34.9999 12.9984V22.1346C30.9325 18.5377 23.6432 18.2365 19.5635 22.0379C16.3656 25.019 16.1119 29.6776 17.1618 33.745C16.2678 32.4029 15.4924 30.9855 14.8446 29.5088C12.7083 24.2104 12.2138 17.1139 16.7634 12.8777C21.579 8.38791 30.1966 8.73772 34.9999 12.9984Z" fill="#BBD1B5"/>
<path d="M55.1431 29.5088C54.4985 30.9908 53.723 32.4125 52.8258 33.7567C53.8757 29.6899 53.6343 25.019 50.4241 22.0379C46.3567 18.2365 39.0674 18.5377 35 22.1346V12.9984C39.8033 8.73772 48.4209 8.38791 53.2242 12.8777C57.7861 17.1139 57.2793 24.2104 55.1431 29.5088Z" fill="#BBD1B5"/>
<path d="M26.5518 65.1727C25.9435 65.1716 25.4314 64.7187 25.3555 64.1153C25.1035 62.089 22.9902 44.1725 26.7932 39.1037C28.483 36.8441 27.1286 34.6849 25.0228 31.8817C23.8965 30.3863 22.9309 29.0944 22.9309 27.7587C22.8754 26.9026 23.2348 26.0716 23.8965 25.5258C25.2183 24.493 27.2616 25.0094 29.8512 25.662C31.5276 26.1571 33.2553 26.4556 35.0001 26.5518C36.7454 26.4556 38.4736 26.1571 40.15 25.662C42.7396 25.0094 44.7819 24.494 46.1047 25.5258C46.7664 26.0722 47.1248 26.9026 47.0693 27.7587C47.0693 29.0944 46.1037 30.3863 44.9773 31.8817C42.8716 34.6849 41.5172 36.8441 43.2069 39.1037C47.01 44.1725 44.8967 62.089 44.6457 64.1153C44.6014 64.551 44.3247 64.9286 43.9226 65.1022C43.5204 65.2758 43.0558 65.2175 42.7087 64.9505C42.3615 64.6835 42.1864 64.2493 42.251 63.8156C42.9052 58.5792 44.0048 44.1896 41.2758 40.5516C38.3646 36.669 41.1829 32.9156 43.0467 30.4317C43.7528 29.6546 44.2991 28.7462 44.6553 27.7587C44.6639 27.6412 44.6473 27.5238 44.6056 27.4137C44.1907 27.1312 42.0304 27.6776 40.7439 28.0023C38.8747 28.5529 36.9462 28.876 35.0001 28.9657C33.055 28.8749 31.1276 28.5507 29.26 28.0001C27.9697 27.6754 25.8095 27.1312 25.3774 27.4282C25.3545 27.5366 25.3438 27.6477 25.3448 27.7587C25.7011 28.7462 26.2474 29.6546 26.9534 30.4317C28.8173 32.9156 31.6355 36.669 28.7244 40.5516C25.9943 44.1917 27.095 58.5792 27.7492 63.8156C27.8314 64.4768 27.3625 65.0798 26.7014 65.1625C26.6517 65.1695 26.602 65.1727 26.5518 65.1727Z" fill="#527F72"/>
<path d="M15.6896 50.6895H6.03436C5.36786 50.6895 4.82739 50.1491 4.82739 49.4826C4.82739 48.8161 5.36786 48.2756 6.03436 48.2756H15.6896C16.3561 48.2756 16.8966 48.8161 16.8966 49.4826C16.8966 50.1491 16.3561 50.6895 15.6896 50.6895Z" fill="#BDC3C7"/>
<path d="M15.6896 55.5174H6.03436C5.36786 55.5174 4.82739 54.977 4.82739 54.3105C4.82739 53.644 5.36786 53.1035 6.03436 53.1035H15.6896C16.3561 53.1035 16.8966 53.644 16.8966 54.3105C16.8966 54.977 16.3561 55.5174 15.6896 55.5174Z" fill="#BDC3C7"/>
<path d="M15.6896 60.3448H6.03436C5.36786 60.3448 4.82739 59.8043 4.82739 59.1378C4.82739 58.4713 5.36786 57.9308 6.03436 57.9308H15.6896C16.3561 57.9308 16.8966 58.4713 16.8966 59.1378C16.8966 59.8043 16.3561 60.3448 15.6896 60.3448Z" fill="#BDC3C7"/>
<path d="M15.6896 65.1727H6.03436C5.36786 65.1727 4.82739 64.6322 4.82739 63.9657C4.82739 63.2992 5.36786 62.7587 6.03436 62.7587H15.6896C16.3561 62.7587 16.8966 63.2992 16.8966 63.9657C16.8966 64.6322 16.3561 65.1727 15.6896 65.1727Z" fill="#BDC3C7"/>
<path d="M63.9657 50.6895H54.3105C53.644 50.6895 53.1035 50.1491 53.1035 49.4826C53.1035 48.8161 53.644 48.2756 54.3105 48.2756H63.9657C64.6322 48.2756 65.1727 48.8161 65.1727 49.4826C65.1727 50.1491 64.6322 50.6895 63.9657 50.6895Z" fill="#BDC3C7"/>
<path d="M63.9657 55.5174H54.3105C53.644 55.5174 53.1035 54.977 53.1035 54.3105C53.1035 53.644 53.644 53.1035 54.3105 53.1035H63.9657C64.6322 53.1035 65.1727 53.644 65.1727 54.3105C65.1727 54.977 64.6322 55.5174 63.9657 55.5174Z" fill="#BDC3C7"/>
<path d="M63.9657 60.3448H54.3105C53.644 60.3448 53.1035 59.8043 53.1035 59.1378C53.1035 58.4713 53.644 57.9308 54.3105 57.9308H63.9657C64.6322 57.9308 65.1727 58.4713 65.1727 59.1378C65.1727 59.8043 64.6322 60.3448 63.9657 60.3448Z" fill="#BDC3C7"/>
<path d="M63.9657 65.1727H54.3105C53.644 65.1727 53.1035 64.6322 53.1035 63.9657C53.1035 63.2992 53.644 62.7587 54.3105 62.7587H63.9657C64.6322 62.7587 65.1727 63.2992 65.1727 63.9657C65.1727 64.6322 64.6322 65.1727 63.9657 65.1727Z" fill="#BDC3C7"/>
</g>
<defs>
<clipPath id="clip0">
<rect width="70" height="70" fill="white"/>
</clipPath>
</defs>
</svg>
