<svg width="70" height="70" viewBox="0 0 70 70" fill="none" xmlns="http://www.w3.org/2000/svg">
<g clip-path="url(#clip0)">
<path d="M61.3168 27.1459L44.0161 36.6285L31.2031 43.6506H31.1908L31.1305 43.6869C29.2849 43.8919 27.2215 44.9655 26.5098 49.9967C25.291 58.7437 22.8421 69.9999 19.1867 69.9999C18.6875 70.0015 18.1931 69.9113 17.7265 69.7346C15.0721 68.7213 14.0348 64.9692 13.3472 62.4354C12.3349 58.41 11.6409 54.3115 11.272 50.1777C10.7557 46.3407 9.51982 42.6362 7.62831 39.2589C5.8788 35.9772 3.68298 33.0457 2.30772 29.5467C-0.780736 21.6683 -1.50467 11.1115 5.07052 4.81393C8.23639 1.89952 12.3403 0.213545 16.6406 0.0603229C18.144 -0.0240291 19.6527 0.0485777 21.1412 0.277609C21.1529 0.26533 21.1769 0.277609 21.2015 0.277609C24.456 0.763968 27.5418 2.03993 30.1893 3.99337C30.6116 4.30729 31.0098 4.64469 31.3958 4.99492C31.6014 4.80165 31.8181 4.62067 32.0354 4.43969C35.3796 1.78687 39.4744 0.254653 43.7384 0.0603229C48.8556 -0.352361 53.9162 1.36778 57.7217 4.81393C63.645 10.4965 63.645 19.6295 61.3168 27.1459Z" fill="#DBD3BF"/>
<path d="M58.9036 27.1459L44.0161 36.6285L33.061 43.602C33.061 43.602 32.1924 43.6143 31.2031 43.6506H31.1908C30.4188 43.6746 29.5742 43.7109 28.971 43.7472C27.0645 43.8919 24.8089 44.9655 24.0967 49.9967C22.9868 57.9594 20.8513 68.0091 17.7265 69.7346C15.0721 68.7213 14.0348 64.9692 13.3472 62.4354C12.3349 58.41 11.6409 54.3115 11.272 50.1777C10.7557 46.3408 9.51982 42.6362 7.6283 39.2589C5.8788 35.9772 3.68298 33.0457 2.30772 29.5467C-0.780736 21.6683 -1.50467 11.1115 5.07052 4.81394C8.23639 1.89952 12.3403 0.213547 16.6406 0.0603256C19.6228 0.214615 22.5383 0.999943 25.1949 2.36452C26.5675 3.07137 27.8413 3.95547 28.9832 4.99492C29.3692 4.6447 29.7675 4.30729 30.1893 3.99337C30.4065 3.82467 30.6361 3.66771 30.8651 3.51075C31.1187 3.69173 31.36 3.89674 31.6857 4.16208C31.8064 4.25871 31.9147 4.35534 32.0354 4.43969C35.3796 1.78687 39.4744 0.254656 43.7384 0.0603256C48.0388 0.213547 52.1427 1.89952 55.3085 4.81394C61.2324 10.4965 61.2324 19.6295 58.9036 27.1459Z" fill="#FCF8E7"/>
<path d="M43.8105 10.7858C43.8105 11.4521 43.2707 11.9924 42.6039 11.9924C41.6488 11.9828 40.6996 11.845 39.7808 11.5824C36.876 10.686 34.1661 9.24935 31.7941 7.34769C30.6478 6.47854 29.5379 5.5496 28.4157 4.65697C27.3939 3.82306 26.3176 3.05695 25.1949 2.36452C24.6946 2.057 24.1789 1.77512 23.6504 1.51993C23.2281 1.31492 22.7454 1.23057 22.3232 1.01328C22.1908 0.941209 20.6585 0.687619 20.634 0.506636C20.5982 0.277604 20.815 0.241301 21.1412 0.277604C21.1529 0.265325 21.1769 0.277604 21.2015 0.277604C21.3702 0.301629 21.5629 0.325653 21.7562 0.349677C24.5307 0.66573 27.2246 1.48362 29.7072 2.76279C30.106 2.99182 30.4925 3.24167 30.8651 3.51074C31.1187 3.69173 31.36 3.89673 31.6857 4.16207C31.8063 4.2587 31.9147 4.35533 32.0354 4.43968C32.8853 5.1524 33.7715 5.82081 34.6898 6.44278C36.9822 7.99902 39.745 9.57928 42.6039 9.57928C42.9243 9.57928 43.2312 9.70634 43.4571 9.93271C43.6834 10.1591 43.8105 10.466 43.8105 10.7858Z" fill="#E4E4E4"/>
<path d="M5.75821 24.0537C5.21419 24.0537 4.73744 23.6896 4.59436 23.1642C1.35482 11.2722 9.67951 7.1208 9.76012 7.08076C10.3559 6.81329 11.0569 7.06795 11.3409 7.65627C11.6255 8.2446 11.39 8.95198 10.8097 9.25255C10.5214 9.39617 4.22866 12.6523 6.92259 22.5236C7.02189 22.8866 6.94608 23.2753 6.71811 23.5742C6.48962 23.8737 6.13459 24.0489 5.75821 24.0489V24.0537Z" fill="white"/>
<path d="M15.7117 6.05626C15.7117 6.72307 15.1714 7.26282 14.5051 7.26282C13.8389 7.26282 13.2986 6.72307 13.2986 6.05626C13.2986 5.38999 13.8389 4.85024 14.5051 4.85024C15.1714 4.85024 15.7117 5.38999 15.7117 6.05626Z" fill="white"/>
<path d="M68.6036 45.0984C67.6309 47.1549 66.5397 49.1527 65.3342 51.0826C64.1661 53.1594 63.4042 55.4401 63.0903 57.8025C62.864 60.3458 62.4363 62.8673 61.8112 65.3429C61.3168 67.1645 60.5203 69.9999 58.2161 69.9999C57.6731 69.9999 57.1665 69.5899 56.7079 68.89C55.2846 66.7304 54.283 61.7718 53.716 57.6941C53.3178 54.919 52.1352 54.1225 51.0739 53.9057C50.9532 53.8812 50.8326 53.8572 50.7119 53.8454H50.6996C50.0109 53.8956 49.3655 54.201 48.8898 54.7017C48.1926 55.5517 47.7751 56.597 47.6955 57.6941C46.9476 63.075 45.4394 69.9999 43.1832 69.9999C42.3418 69.9913 41.556 69.5781 41.0718 68.89C40.3558 67.8142 39.8556 66.6098 39.5999 65.3429C38.9122 62.8817 41.0237 60.3362 40.7344 57.8025C40.4146 55.4417 39.6533 53.1615 38.4899 51.0826C37.2855 49.1505 36.19 47.1522 35.2088 45.0984C33.3146 40.2605 32.8677 33.7574 36.9097 29.8846C38.5626 28.3038 38.2972 27.3749 40.5651 27.0615C41.1609 26.9788 41.7615 26.9382 42.3627 26.9409C44.6567 26.9296 46.9123 27.5244 48.9021 28.6658C49.5433 29.0481 50.1455 29.4928 50.6996 29.993C52.5186 28.3935 54.7752 27.3765 57.1787 27.0733C58.5529 26.88 59.9495 26.9046 61.3168 27.1459C63.4112 27.4785 65.3572 28.4325 66.9027 29.8846C70.9564 33.7574 70.5101 40.2605 68.6036 45.0984Z" fill="#D8C7B2"/>
<path d="M64.9845 45.0984C64.0118 47.1549 62.92 49.1527 61.715 51.0826C60.5464 53.1594 59.7851 55.4401 59.4706 57.8025C59.2448 60.3459 58.8172 62.8673 58.192 65.3429C57.9267 66.6087 57.4227 67.8126 56.7078 68.89C55.2845 66.7304 54.283 61.7718 53.716 57.6941C53.3178 54.919 52.1352 54.1225 51.0739 53.9057C50.95 53.8785 50.8256 53.8582 50.6996 53.8454C50.492 53.8454 50.2886 53.8054 50.083 53.7899C49.5048 53.7445 48.9245 53.7333 48.3447 53.7557C47.7778 53.7568 47.2118 53.8128 46.6556 53.9239C46.4036 53.9799 46.1601 54.0696 45.9316 54.1903C45.4469 54.4716 45.0502 54.8822 44.7854 55.376C44.613 55.6894 44.4741 56.0199 44.3716 56.3621C44.3076 56.566 44.251 56.7732 44.2088 56.9819C44.1447 57.2147 44.1042 57.4533 44.0882 57.6941C43.5212 61.7718 42.5196 66.7304 41.084 68.89C40.3676 67.8142 39.8679 66.6098 39.6122 65.3429C38.987 62.8673 38.5594 60.3459 38.3335 57.8025C38.0137 55.4417 37.2524 53.1615 36.0891 51.0826C34.8847 49.1505 33.7892 47.1522 32.8074 45.0984C30.9132 40.2605 30.4669 33.7574 34.5089 29.8846C36.1842 28.3284 38.3079 27.3407 40.5774 27.0615C42.9894 27.3658 45.2552 28.3871 47.0805 29.993C47.6352 29.4832 48.2465 29.0379 48.9021 28.6658C49.5433 29.0481 50.1455 29.4928 50.6996 29.993C52.5185 28.3935 54.7752 27.3765 57.1787 27.0733C57.3528 27.085 57.5263 27.109 57.6971 27.1459C59.7915 27.4785 61.7375 28.4325 63.2836 29.8846C67.3373 33.7574 66.8904 40.2605 64.9845 45.0984Z" fill="#FFFCEC"/>
<path d="M56.159 34.3062C51.502 34.3062 47.3021 30.2044 47.0805 29.993C46.6048 29.5264 44.7688 28.1832 45.2354 27.7006C45.7026 27.2179 48.2913 28.3247 48.9021 28.6658C50.5053 29.5611 53.1127 31.8931 56.159 31.8931C56.8253 31.8931 57.3656 32.4334 57.3656 33.0996C57.3656 33.7659 56.8253 34.3062 56.159 34.3062Z" fill="#D2CCC3"/>
<path d="M36.9712 43.5272C36.4576 43.5278 35.9995 43.2021 35.8313 42.7168C33.738 36.6937 36.6866 33.1178 38.537 32.0682C39.1157 31.7372 39.853 31.9374 40.184 32.5161C40.515 33.0943 40.3148 33.8316 39.7366 34.1626C39.57 34.2619 36.18 36.3696 38.1099 41.924C38.2386 42.2929 38.1809 42.7013 37.9545 43.0195C37.7282 43.3383 37.3619 43.5272 36.9712 43.5272Z" fill="white"/>
<path d="M43.4609 31.3928C43.4609 32.0591 42.9207 32.5989 42.2544 32.5989C41.5881 32.5989 41.0479 32.0591 41.0479 31.3928C41.0479 30.726 41.5881 30.1863 42.2544 30.1863C42.9207 30.1863 43.4609 30.726 43.4609 31.3928Z" fill="white"/>
</g>
<defs>
<clipPath id="clip0">
<rect width="70" height="70" fill="white"/>
</clipPath>
</defs>
</svg>
