<svg width="35" height="35" viewBox="0 0 35 35" fill="none" xmlns="http://www.w3.org/2000/svg">
<g clip-path="url(#clip0)">
<path d="M13.52 5.22439L9.17207 0.876605C8.02377 -0.292202 5.97299 -0.292202 4.80418 0.876605L4.10671 1.59451C4.0819 1.61933 3.3482 2.34182 3.3482 2.37381C2.97892 2.76346 2.99923 3.3992 3.38901 3.76834L10.6283 11.0075C10.9975 11.4181 11.6945 11.4178 12.064 11.0075L13.52 9.55153C14.6898 8.4221 14.7611 6.42245 13.52 5.22439Z" fill="#B7B7B7"/>
<path d="M34.0924 25.8383L29.7447 21.4906C28.5964 20.3218 26.5662 20.3218 25.4176 21.4906L24.6999 22.229L23.9616 22.9467C23.5515 23.3363 23.5515 23.9926 23.9616 24.3822L31.2214 31.6419C31.5758 32.0365 32.2509 32.0682 32.6774 31.6419L33.3746 30.9242L34.0923 30.1859C35.3026 28.9966 35.3026 27.0278 34.0924 25.8383Z" fill="#AAAAAA"/>
<path d="M33.3746 30.9244L32.6774 31.6421C27.0789 36.687 20.5368 35.477 16.8455 31.7651L3.24551 18.1237C-1.08184 13.817 -1.08184 6.78288 3.24551 2.45581C3.26602 2.45581 3.43001 2.29168 3.43001 2.27131L4.1067 1.59448L12.7814 10.2692L12.3713 10.6999L12.0639 11.0075C11.4075 11.7253 10.8743 12.1764 10.8743 13.1813C10.8743 13.817 11.1204 14.3913 11.5512 14.8424L14.9759 18.2673L20.1264 23.4595C21.0084 24.3413 22.5465 24.3413 23.4284 23.4595L23.9616 22.9468L24.6999 22.2291L33.3746 30.9244Z" fill="white"/>
<path d="M24.6999 22.229L33.3746 30.9243L32.6774 31.642C27.0789 36.687 20.5368 35.477 16.8455 31.7651L9.19263 24.0709C9.19263 24.0505 9.19263 24.0505 9.19263 24.0505L14.976 18.2673L20.1265 23.4595C21.0085 24.3413 22.5465 24.3413 23.4284 23.4595L23.9616 22.9468L24.6999 22.229Z" fill="#D3D3D3"/>
</g>
<defs>
<clipPath id="clip0">
<rect width="35" height="35" fill="white"/>
</clipPath>
</defs>
</svg>
