<svg width="35" height="35" viewBox="0 0 35 35" fill="none" xmlns="http://www.w3.org/2000/svg">
<g clip-path="url(#clip0)">
<path d="M16.6507 34.6214C16.1677 34.0835 4.82422 21.3497 4.82422 12.6756C4.82429 5.68627 10.5106 0 17.5 0C24.4894 0 30.1756 5.68627 30.1756 12.6756C30.1756 21.3496 18.8321 34.0835 18.3491 34.6214C17.8954 35.1267 17.1033 35.1257 16.6507 34.6214Z" fill="white"/>
<path d="M30.1755 12.6756C30.1755 5.68627 24.4893 0 17.5 0V35C17.8112 35 18.1225 34.874 18.3492 34.6214C18.8321 34.0836 30.1755 21.3497 30.1755 12.6756Z" fill="#EEECEC"/>
<path d="M17.5001 19.053C13.9836 19.053 11.1228 16.1921 11.1228 12.6755C11.1228 9.159 13.9837 6.2981 17.5001 6.2981C21.0165 6.2981 23.8774 9.159 23.8774 12.6755C23.8774 16.1921 21.0165 19.053 17.5001 19.053Z" fill="#FAFAFA"/>
<path d="M17.5 6.29822V19.0531C21.0165 19.0531 23.8773 16.1921 23.8773 12.6756C23.8773 9.15906 21.0164 6.29822 17.5 6.29822Z" fill="#E7E7E7"/>
</g>
<defs>
<clipPath id="clip0">
<rect width="35" height="35" fill="white"/>
</clipPath>
</defs>
</svg>
