<svg width="73" height="73" viewBox="0 0 73 73" fill="none" xmlns="http://www.w3.org/2000/svg">
<path d="M36.5 73C56.6584 73 73 56.6584 73 36.5C73 16.3416 56.6584 0 36.5 0C16.3416 0 0 16.3416 0 36.5C0 56.6584 16.3416 73 36.5 73Z" fill="#13917C"/>
<path d="M72.9335 34.3185L54.8934 16.2784L37.6779 41.52L32.1604 42.6885L26.8009 53.9472L28.2973 55.2735L24.6672 60.5961L37.0772 72.9926C56.9691 72.6838 73.0001 56.4653 73.0001 36.4999C73.0001 35.7675 72.976 35.0407 72.9335 34.3185Z" fill="#0B735F"/>
<path d="M36.5 44.9623C41.8459 44.9623 42.9508 54.1775 43.9327 59.6646C44.2092 61.2094 47.5318 61.6778 48.4847 60.4309C60.3653 44.8846 59.2946 27.8577 58.2989 23.1636C57.198 17.9734 54.1163 13.8213 48.9567 13.8213C43.7975 13.8213 40.1477 15.575 36.5002 19.2228C32.8527 15.575 29.2029 13.8213 24.0437 13.8213C18.8841 13.8213 15.8024 17.9734 14.7015 23.1636C13.7058 27.8577 12.6349 44.8846 24.5157 60.4309C25.4686 61.6778 28.7912 61.2096 29.0677 59.6646C30.0492 54.1775 31.154 44.9623 36.5 44.9623Z" fill="white"/>
</svg>
